<?xml version="1.0" standalone="no"?>
<!DOCTYPE svg PUBLIC "-//W3C//DTD SVG 20010904//EN"
 "http://www.w3.org/TR/2001/REC-SVG-20010904/DTD/svg10.dtd">
<svg version="1.0" xmlns="http://www.w3.org/2000/svg"
 width="512.000000pt" height="512.000000pt" viewBox="0 0 512.000000 512.000000"
 preserveAspectRatio="xMidYMid meet">

<g transform="translate(0.000000,512.000000) scale(0.100000,-0.100000)"
fill="#000000" stroke="none">
<path d="M1262 4089 c-91 -15 -167 -69 -205 -144 -14 -29 -19 -47 -32 -127
l-6 -38 65 0 64 0 7 38 c13 79 68 134 147 147 l38 7 0 64 c0 45 -4 64 -12 63
-7 -1 -37 -5 -66 -10z"/>
<path d="M1667 4094 c-4 -4 -7 -34 -7 -66 l0 -58 195 0 196 0 -3 63 -3 62
-186 3 c-102 1 -188 -1 -192 -4z"/>
<path d="M2370 4035 l0 -65 190 0 190 0 0 65 0 65 -190 0 -190 0 0 -65z"/>
<path d="M3077 4094 c-4 -4 -7 -34 -7 -66 l0 -58 195 0 196 0 -3 63 -3 62
-186 3 c-102 1 -188 -1 -192 -4z"/>
<path d="M3780 4037 l0 -65 38 -7 c79 -13 134 -68 147 -147 l7 -38 64 0 65 0
-6 38 c-4 20 -9 51 -12 67 -18 97 -108 183 -208 200 -22 3 -52 9 -67 11 l-28
6 0 -65z"/>
<path d="M1024 3447 c-2 -7 -3 -94 -2 -192 l3 -180 63 -3 62 -3 0 196 0 195
-60 0 c-40 0 -62 -4 -66 -13z"/>
<path d="M3970 3265 l0 -196 63 3 62 3 0 190 0 190 -62 3 -63 3 0 -196z"/>
<path d="M2500 2945 l0 -315 -320 0 -320 0 0 -65 0 -65 320 0 320 0 0 -320 0
-320 65 0 65 0 0 320 0 320 315 0 315 0 0 65 0 65 -315 0 -315 0 0 315 0 315
-65 0 -65 0 0 -315z"/>
<path d="M1020 2560 l0 -190 65 0 65 0 0 190 0 190 -65 0 -65 0 0 -190z"/>
<path d="M3970 2560 l0 -190 65 0 65 0 0 190 0 190 -65 0 -65 0 0 -190z"/>
<path d="M1024 2037 c-2 -7 -3 -94 -2 -192 l3 -180 63 -3 62 -3 0 196 0 195
-60 0 c-40 0 -62 -4 -66 -13z"/>
<path d="M3970 1855 l0 -196 63 3 62 3 0 190 0 190 -62 3 -63 3 0 -196z"/>
<path d="M1025 1303 c14 -82 18 -99 35 -133 21 -41 73 -92 115 -113 29 -14 47
-19 128 -32 l37 -6 0 65 0 64 -38 7 c-79 13 -134 68 -147 147 l-7 38 -64 0
-65 0 6 -37z"/>
<path d="M3965 1302 c-13 -79 -68 -134 -147 -147 l-38 -7 0 -65 0 -65 28 6
c15 2 45 8 67 11 107 18 196 109 210 217 4 23 8 53 11 66 4 21 1 22 -60 22
l-64 0 -7 -38z"/>
<path d="M1662 1088 l3 -63 190 0 190 0 3 63 3 62 -196 0 -196 0 3 -62z"/>
<path d="M2370 1085 l0 -65 190 0 190 0 0 65 0 65 -190 0 -190 0 0 -65z"/>
<path d="M3072 1088 l3 -63 190 0 190 0 3 63 3 62 -196 0 -196 0 3 -62z"/>
</g>
</svg>
